<?xml version="1.0" encoding="UTF-8" standalone="no"?>
<!DOCTYPE svg PUBLIC "-//W3C//DTD SVG 1.1//EN" "http://www.w3.org/Graphics/SVG/1.1/DTD/svg11.dtd">
<svg version="1.1" xmlns="http://www.w3.org/2000/svg" xmlns:xlink="http://www.w3.org/1999/xlink"
     preserveAspectRatio="xMidYMid meet" viewBox="0 0 299.52 299.52" width="299.52" height="299.52">
  <defs>
    <path
      d="M162.06 0.5L168.11 1.11L174.09 1.96L179.99 3.04L185.8 4.34L191.52 5.87L197.16 7.62L202.69 9.58L208.12 11.75L213.44 14.12L218.65 16.69L223.75 19.45L228.72 22.4L233.56 25.54L238.27 28.85L242.85 32.34L247.29 36L251.58 39.82L255.72 43.8L259.7 47.94L263.52 52.23L267.18 56.67L270.67 61.25L273.98 65.96L277.12 70.8L280.07 75.77L282.83 80.87L285.4 86.08L287.77 91.4L289.94 96.83L291.9 102.36L293.65 108L295.18 113.72L296.48 119.53L297.56 125.43L298.41 131.41L299.02 137.46L299.4 143.58L299.52 149.76L299.4 155.94L299.02 162.06L298.41 168.11L297.56 174.09L296.48 179.99L295.18 185.8L293.65 191.52L291.9 197.16L289.94 202.69L287.77 208.12L285.4 213.44L282.83 218.65L280.07 223.75L277.12 228.72L273.98 233.56L270.67 238.27L267.18 242.85L263.52 247.29L259.7 251.58L255.72 255.72L251.58 259.7L247.29 263.52L242.85 267.18L238.27 270.67L233.56 273.98L228.72 277.12L223.75 280.07L218.65 282.83L213.44 285.4L208.12 287.77L202.69 289.94L197.16 291.9L191.52 293.65L185.8 295.18L179.99 296.48L174.09 297.56L168.11 298.41L162.06 299.02L155.94 299.4L149.76 299.52L143.58 299.4L137.46 299.02L131.41 298.41L125.43 297.56L119.53 296.48L113.72 295.18L108 293.65L102.36 291.9L96.83 289.94L91.4 287.77L86.08 285.4L80.87 282.83L75.77 280.07L70.8 277.12L65.96 273.98L61.25 270.67L56.67 267.18L52.23 263.52L47.94 259.7L43.8 255.72L39.82 251.58L36 247.29L32.34 242.85L28.85 238.27L25.54 233.56L22.4 228.72L19.45 223.75L16.69 218.65L14.12 213.44L11.75 208.12L9.58 202.69L7.62 197.16L5.87 191.52L4.34 185.8L3.04 179.99L1.96 174.09L1.11 168.11L0.5 162.06L0.12 155.94L0 149.76L0.12 143.58L0.5 137.46L1.11 131.41L1.96 125.43L3.04 119.53L4.34 113.72L5.87 108L7.62 102.36L9.58 96.83L11.75 91.4L14.12 86.08L16.69 80.87L19.45 75.77L22.4 70.8L25.54 65.96L28.85 61.25L32.34 56.67L36 52.23L39.82 47.94L43.8 43.8L47.94 39.82L52.23 36L56.67 32.34L61.25 28.85L65.96 25.54L70.8 22.4L75.77 19.45L80.87 16.69L86.08 14.12L91.4 11.75L96.83 9.58L102.36 7.62L108 5.87L113.72 4.34L119.53 3.04L125.43 1.96L131.41 1.11L137.46 0.5L143.58 0.12L149.76 0L155.94 0.12L162.06 0.5ZM139.53 25.37L134.5 25.89L129.53 26.59L124.62 27.5L119.78 28.59L115.02 29.87L110.33 31.33L105.72 32.96L101.2 34.77L96.76 36.75L92.42 38.9L88.18 41.2L84.04 43.67L80 46.28L76.07 49.05L72.25 51.96L68.56 55.01L64.98 58.2L61.53 61.53L58.2 64.98L55.01 68.56L51.96 72.25L49.05 76.07L46.28 80L43.67 84.04L41.2 88.18L38.9 92.42L36.75 96.76L34.77 101.2L32.96 105.72L31.33 110.33L29.87 115.02L28.59 119.78L27.5 124.62L26.59 129.53L25.89 134.5L25.37 139.53L25.06 144.62L24.96 149.76L25.06 154.9L25.37 159.99L25.89 165.02L26.59 169.99L27.5 174.9L28.59 179.74L29.87 184.5L31.33 189.19L32.96 193.8L34.77 198.32L36.75 202.76L38.9 207.1L41.2 211.34L43.67 215.48L46.28 219.52L49.05 223.45L51.96 227.27L55.01 230.96L58.2 234.54L61.53 237.99L64.98 241.32L68.56 244.51L72.25 247.56L76.07 250.47L80 253.24L84.04 255.85L88.18 258.32L92.42 260.62L96.76 262.77L101.2 264.75L105.72 266.56L110.33 268.19L115.02 269.65L119.78 270.93L124.62 272.02L129.53 272.93L134.5 273.63L139.53 274.15L144.62 274.46L149.76 274.56L154.9 274.46L159.99 274.15L165.02 273.63L169.99 272.93L174.9 272.02L179.74 270.93L184.5 269.65L189.19 268.19L193.8 266.56L198.32 264.75L202.76 262.77L207.1 260.62L211.34 258.32L215.48 255.85L219.52 253.24L223.45 250.47L227.27 247.56L230.96 244.51L234.54 241.32L237.99 237.99L241.32 234.54L244.51 230.96L247.56 227.27L250.47 223.45L253.24 219.52L255.85 215.48L258.32 211.34L260.62 207.1L262.77 202.76L264.75 198.32L266.56 193.8L268.19 189.19L269.65 184.5L270.93 179.74L272.02 174.9L272.93 169.99L273.63 165.02L274.15 159.99L274.46 154.9L274.56 149.76L274.46 144.62L274.15 139.53L273.63 134.5L272.93 129.53L272.02 124.62L270.93 119.78L269.65 115.02L268.19 110.33L266.56 105.72L264.75 101.2L262.77 96.76L260.62 92.42L258.32 88.18L255.85 84.04L253.24 80L250.47 76.07L247.56 72.25L244.51 68.56L241.32 64.98L237.99 61.53L234.54 58.2L230.96 55.01L227.27 51.96L223.45 49.05L219.52 46.28L215.48 43.67L211.34 41.2L207.1 38.9L202.76 36.75L198.32 34.77L193.8 32.96L189.19 31.33L184.5 29.87L179.74 28.59L174.9 27.5L169.99 26.59L165.02 25.89L159.99 25.37L154.9 25.06L149.76 24.96L144.62 25.06L139.53 25.37Z"
      id="a2IgJYYUc"></path>
    <path
      d="M149.76 138.11L108.49 96.84L96.84 108.49L138.11 149.76L96.84 191.03L108.49 202.68L149.76 161.41L191.03 202.68L202.68 191.03L161.41 149.76L202.68 108.49L191.03 96.84L149.76 138.11Z"
      id="e1wsYdjvl8"></path>
  </defs>
  <g>
    <g>
      <g>
        <use xlink:href="#a2IgJYYUc" opacity="1" fill="#010202" fill-opacity="1"></use>
        <g>
          <use xlink:href="#a2IgJYYUc" opacity="1" fill-opacity="0" stroke="#000000"
               stroke-width="1" stroke-opacity="0"></use>
        </g>
      </g>
      <g>
        <use xlink:href="#e1wsYdjvl8" opacity="1" fill="#010202" fill-opacity="1"></use>
        <g>
          <use xlink:href="#e1wsYdjvl8" opacity="1" fill-opacity="0" stroke="#000000"
               stroke-width="1" stroke-opacity="0"></use>
        </g>
      </g>
    </g>
  </g>
</svg>
