<?xml version="1.0" encoding="utf-8"?>
<svg version="1.1" id="Layer_1" xmlns="http://www.w3.org/2000/svg" xmlns:xlink="http://www.w3.org/1999/xlink" x="0px" y="0px"
	 viewBox="0 0 90 90" style="enable-background:new 0 0 90 90;" xml:space="preserve">
<g>
	<path fill="#fff" d="M51.8,17.5c0.7,2.6,2.2,5,4,6.9c1,1.1,2.2,2.1,3.6,2.7c0.6,0.3,1.2,0.5,1.8,0.6c0.5,0.1,1.6-0.1,1.9,0.2
		c-3.2-0.3-6.9,1.1-9.7,2.5c-2.2,1.1-6.4,3.3-5.3,6.3c-3.2-2.5-6,0.8-7.6,3.2c-2,2.9-5.1,5.3-6,8.9c-1.1-1.4-2.1-2.9-3-4.4
		c3.8,0.4,6.3-3,7.4-6.2c1.3-3.8,1.5-8.3,0.5-12.3c-0.8-2.9-2.9-6.6-6.5-5.3c-2.3,0.9-3.3,3.6-3.9,5.7c-0.8,2.6-1.4,5-2.7,7.4
		c-0.7-1.2-1.5-2.4-2.5-3.5c-0.7-0.8,0.1-1,0.3-1.9c0.1-0.7,0-1.3-0.2-2c-0.7-2.4-2.9-4-5.1-5.1c-3.7-1.8-8.2-2.4-12.2-1.3
		c-1.7,0.5-3.5,1.4-4,3.1c-0.7,2.4,2.9,5,4.6,6.2c2.3,1.7,5.4,3.2,8.3,3.6c1.4,0.2,3-0.2,4.3-0.7c1.1-0.4,1.1-0.6,1.9,0.3
		c0.5,0.6,1,1.2,1.4,1.9c-4.1-1.8-7.8-0.6-11.3,1.9c-2.4,1.7-6,4.5-4.8,7.9c1.3,3.9,5.4,2.2,8.5,2.4c2.1,0.2,4.3,1,6.5,0.5
		c2.1-0.5,4.3-2,5.6-3.6c1,2.3,2.1,4.5,3.6,6.6c-4.4,0.6-8.6,1.8-12.1,4.6c-1.6,1.3-2.8,2.2-1.8,4.4c0.7,1.4,2.2,2.3,3.6,3
		c3,1.3,6.4,1.8,9.6,1.4c3.3-0.5,7.5-2,8.8-5.4c2.1,1.3,4.3,2.3,6.6,3.3c-2.7,1.5-4.1,4.5-6.2,6.7c-2.2,2.2-5.2,3.9-5.2,7.4
		c0,3.4,3.6,3.7,6.2,3.4c6-0.7,16.9-5.5,15.1-13.2c5,2.1,8.9,4.6,12,9c1.4,1.9,2.6,4,3.7,6c0.8,1.4,1.7,4.2,3.9,3.4
		c2.1-0.7-0.5-3.9-1-5c-1.4-2.6-3-5.2-4.9-7.5c-0.2-0.3-0.8-0.8-0.8-1.1c0-0.9,0-1.9,0-2.8c0-1.6,0-3.3,0-4.9
		c0.1-3.2,0.6-6.3,1.5-9.4c3,1.5,7.7,1,10.5-0.6c2.9-1.7,4.9-4.9,6-8c1-2.7,1.1-7.1-2.7-7.6c-2.1-0.3-3.9,1.2-5.6,2.3
		c-2,1.3-4.3,2.1-6.3,3.4c0-1.7-0.3-3.5-0.7-5.2c3.4,0.3,7.6-2.7,9.2-5.6c1.6-3,1.9-7.1,1.3-10.4c-0.4-2.8-3-7.3-6.3-4.5
		c-1.7,1.4-2.7,3.7-4.1,5.4c-1.6,1.9-3.3,3.8-4.1,6.2c-0.4-0.6-0.8-1.2-1.3-1.8c-0.6-0.8-0.3-0.6,0.2-1.3c0.7-1,1.1-2.1,1.3-3.3
		c0.4-2.3-0.1-4.3-1.3-6.3c-1.3-2.3-2.9-4.3-4.9-6c-1.5-1.3-4.7-4.2-6.9-3.7C49.7,7,50.8,14.2,51.8,17.5z M34.5,24
		c1.8,2.4,1.6,6.6,1.4,9.4c-0.7-0.1-3.1,0.2-1.8,1.5c0.3,0.2,0.7,0.4,1,0.6c0.7,0.5,0.4,0.9,0.1,1.7c-0.6-0.8-3.5-1.4-2.7,0.4
		c0.5,1.2,2.2,1.5,0.9,2.7c-1.9,1.8-4.4,0.1-4.2-2.4c0.2-2.1,1.5-4,2.5-5.8C32.6,30.1,32.3,26,34.5,24z M10.9,22.5
		c2-0.1,3.6,0.1,5.4,1c-0.8,1.2-0.5,2.9,1.1,1.9c0.2-0.1,0.7-0.7,0.9-0.7c0.9,0.7,2,1.8,1.5,3c-1.2,2.4-5,2-7,1.2
		c-2.5-1-4.7-2.9-6.3-5C6.9,22.2,9.8,22.5,10.9,22.5z M10.9,42.5c-1.5-0.3-0.3-1.2,0.4-1.8c1.4-1.2,3.1-2.1,4.9-2.8
		c1.7-0.7,3.3-0.8,5-0.1c1,0.4,4.1,1.9,4.1,3.1c0,1-1.6,1.5-2.4,1.9c-1.8,0.9-3.4,0.3-5.3,0C16.6,42.6,13.1,42.9,10.9,42.5z
		 M62.1,37.6c-2,0.8-4.6,0.6-6.7,0.2c-1-0.2-2.2-0.5-3-1.2c-1.4-1.2,0.7-2.1,1.7-2.8c3.1-2.1,7.5-4.7,10.5-2.1
		C69.5,36,64.5,36.7,62.1,37.6z M43.4,42.4c0.5-0.9,1-2,1.9-2.6c1-0.7,1.1,2.4,1.1,2.9c0.1,1.9-0.1,3.8-0.6,5.6
		c-0.4,1.5-1.3,2.8-2.6,3.6c-0.8,0.5-3.5,2-4.3,1.3c-0.8-0.7-0.4-2.3-0.2-3.1c0.2-1.9,1-3.1,2.3-4.4C41.7,44.8,42.7,43.6,43.4,42.4z
		 M31.2,53.1c1.4,0.1,3.8,0.9,4.2,2.4c0.3,1.5-1.6,2.7-2.7,3.3c0.1-0.9-0.6-2.9-1.9-2.5c-1.4,0.4-0.3,2.7,0.2,3.3
		c-0.3,0.1-0.7,0.3-1.1,0.4c-0.3-1.9-3.3-1.8-2.4,0.1c-1.4,0-6.8,0.1-6.8-2.2C22.3,56.4,27.6,52.9,31.2,53.1z M55.9,55.2
		c-0.7,0.2-1.6,1.5-0.5,1.9c0.7,0.2,1.4,0.5,2.1,0.6c-0.3,1.1-1.4,4.7-3.2,3.5c-1.4-1-2.1-3.1-2.2-4.7c-0.2-3.7,1.6-7.5,3.9-10.3
		c1.2,0.9,1.5,3.3,1.8,4.6c0.4,1.7,0.6,3.1,0.2,4.8C57.4,55.2,56.7,54.9,55.9,55.2z M45.9,73.1c-1.2,0.7-2.8,1-4,1.4
		c-0.3,0.1-3.8,0.9-3.9,1.2c0.3-2.7,3.8-4.3,5.5-6c1.8-1.7,2.6-4.2,4.7-5.6c2.5-1.5,4.8,1.1,3.7,3.6C50.9,70.2,48.2,71.7,45.9,73.1
		C45.2,73.5,48.3,71.7,45.9,73.1z M59,63.4c4.9-4.2,4.2-14.2,0.1-18.7C52.3,37.3,47,54.1,48.5,59c-2.2-0.9-4.4-2-6.4-3.3
		c3-1,5.7-2.8,7.1-5.8c1.5-3.3,1.7-8,0.2-11.4c4.7,3.9,13.6,3.6,18.5,0.1c0.9,4.9-0.2,9.3-1.3,14.1c-1,4.7-1.5,9.6-1.6,14.4
		C63.1,65.7,61.1,64.5,59,63.4z M82.9,40.2c0.5-0.3,0.1,2.5,0,2.8c-0.4,1.8-1.4,3.7-2.4,5.2c-0.2-0.6-1-1.3-1.7-1.2
		c-1.3,0.4-0.5,1.7-0.2,2.5c0.2,0.5-0.5,1.2-0.7,0.8c-0.2-0.4-0.4-0.7-0.9-0.9c-1.3-0.7-1.7,0.6-1.3,1.6c-1.1,0.1-4.1,0.4-3.9-1.5
		c0.1-1.3,1.3-3.1,2.2-4c1.1-1.1,2.7-1.4,4-2.1C79.6,42.5,81.2,41.2,82.9,40.2C83.6,39.8,80.6,41.5,82.9,40.2z M72.5,26.9
		c1.7-1.6,2.7-3.7,4-5.6c0.6-0.8,1.7-0.3,2.2,0.5c0.4,0.7,0.2,1.9,0.2,2.7c-1.3-0.7-3.3,1.3-1.5,1.9c0.7,0.3,1.5,0.1,1.3,0.9
		c-0.3,1.4-0.8,2.7-1.8,3.7c-1.1,1-5.7,3.6-6.5,1.6C69.6,31.1,71.2,28.1,72.5,26.9C74.4,25.1,71.9,27.5,72.5,26.9z M61.1,14
		c-0.7,0.4-2.3,2.4-0.5,2.4c0.4,0,0.8-0.2,1.3-0.2c0.2,0,0.4-0.2,0.6-0.2c0.3,0.1,0.6,1.1,0.8,1.4c-0.8-0.3-2.7,0.4-2.4,1.5
		c0.3,0.9,1.9,0.8,2.7,0.9c0.7,0.2-0.5,4-1.5,4.3c-1.3,0.4-2.7-0.9-3.5-1.8c-2.3-2.3-3.3-4.9-3.7-8.1c-0.2-1.3-0.5-3.5,0.5-4.6
		C56.1,8.9,60.5,13.3,61.1,14z"/>
</g>
</svg>
