<?xml version="1.0" encoding="UTF-8" standalone="no"?>
<!DOCTYPE svg PUBLIC "-//W3C//DTD SVG 1.1//EN" "http://www.w3.org/Graphics/SVG/1.1/DTD/svg11.dtd">
<svg version="1.1" xmlns="http://www.w3.org/2000/svg" xmlns:xlink="http://www.w3.org/1999/xlink"
     preserveAspectRatio="xMidYMid meet" viewBox="0 0 416 416" width="416" height="416">
  <defs>
    <path
      d="M225.06 0.69L233.45 1.54L241.74 2.72L249.92 4.23L257.98 6.05L265.93 8.17L273.74 10.6L281.42 13.33L288.96 16.35L296.35 19.64L303.59 23.22L310.66 27.06L317.57 31.16L324.29 35.52L330.84 40.13L337.2 44.98L343.36 50.07L349.33 55.38L355.08 60.92L360.62 66.67L365.93 72.64L371.02 78.8L375.87 85.16L380.48 91.71L384.84 98.43L388.94 105.34L392.78 112.41L396.36 119.65L399.65 127.04L402.67 134.58L405.4 142.26L407.83 150.07L409.95 158.02L411.77 166.08L413.28 174.26L414.46 182.55L415.31 190.94L415.83 199.43L416 208L415.83 216.57L415.31 225.06L414.46 233.45L413.28 241.74L411.77 249.92L409.95 257.98L407.83 265.93L405.4 273.74L402.67 281.42L399.65 288.96L396.36 296.35L392.78 303.59L388.94 310.66L384.84 317.57L380.48 324.29L375.87 330.84L371.02 337.2L365.93 343.36L360.62 349.33L355.08 355.08L349.33 360.62L343.36 365.93L337.2 371.02L330.84 375.87L324.29 380.48L317.57 384.84L310.66 388.94L303.59 392.78L296.35 396.36L288.96 399.65L281.42 402.67L273.74 405.4L265.93 407.83L257.98 409.95L249.92 411.77L241.74 413.28L233.45 414.46L225.06 415.31L216.57 415.83L208 416L199.43 415.83L190.94 415.31L182.55 414.46L174.26 413.28L166.08 411.77L158.02 409.95L150.07 407.83L142.26 405.4L134.58 402.67L127.04 399.65L119.65 396.36L112.41 392.78L105.34 388.94L98.43 384.84L91.71 380.48L85.16 375.87L78.8 371.02L72.64 365.93L66.67 360.62L60.92 355.08L55.38 349.33L50.07 343.36L44.98 337.2L40.13 330.84L35.52 324.29L31.16 317.57L27.06 310.66L23.22 303.59L19.64 296.35L16.35 288.96L13.33 281.42L10.6 273.74L8.17 265.93L6.05 257.98L4.23 249.92L2.72 241.74L1.54 233.45L0.69 225.06L0.17 216.57L0 208L0.17 199.43L0.69 190.94L1.54 182.55L2.72 174.26L4.23 166.08L6.05 158.02L8.17 150.07L10.6 142.26L13.33 134.58L16.35 127.04L19.64 119.65L23.22 112.41L27.06 105.34L31.16 98.43L35.52 91.71L40.13 85.16L44.98 78.8L50.07 72.64L55.38 66.67L60.92 60.92L66.67 55.38L72.64 50.07L78.8 44.98L85.16 40.13L91.71 35.52L98.43 31.16L105.34 27.06L112.41 23.22L119.65 19.64L127.04 16.35L134.58 13.33L142.26 10.6L150.07 8.17L158.02 6.05L166.08 4.23L174.26 2.72L182.55 1.54L190.94 0.69L199.43 0.17L208 0L216.57 0.17L225.06 0.69ZM187 187L101 187L101 229L187 229L187 315L229 315L229 229L315 229L315 187L229 187L229 101L187 101L187 187Z"
      id="d3nX0bWy"></path>
  </defs>
  <g>
    <g>
      <g>
        <use xlink:href="#d3nX0bWy" opacity="1" fill="#000000" fill-opacity="1"></use>
        <g>
          <use xlink:href="#d3nX0bWy" opacity="1" fill-opacity="0" stroke="#000000" stroke-width="1"
               stroke-opacity="0"></use>
        </g>
      </g>
    </g>
  </g>
</svg>
